# xmcd
#
# Track frame offsets:
#	150
#	16457
#	39492
#	52117
#	68960
#	91187
#	111667
#	127165
#	144897
#	166405
#	183980
#	208287
#	228115
#	244702
#	261730
#
# Disc length: 3684 seconds
#
# Revision: 0
# Processed by: cddbd v1.4PL0 Copyright (c) Steve Scherf et al.
# Submitted via: dBpowerAMP V4.0
#
DISCID=e10e620f
DTITLE=Diversos - Melodies of Love [CD1)
DYEAR=1900
DGENRE=Ballad
TTITLE0=I Never Cry - A. Cooper, D. Wagner
TTITLE1=Subcity - T. Chapman
TTITLE2=Ssittin´on the Dock of the Bay - Redding, Cropper
TTITLE3=Alone Again (Naturally) - Gilbert O´Sullivan
TTITLE4=Always - J. Lewis W. Lewis (jodaway)
TTITLE5=As - Stevie Wonder
TTITLE6=Baby I Love Your Way - P. Framptom
TTITLE7=Can You Feel the Love Tonight - E. Joohn
TTITLE8=Cry For Help - R. Astley/R. Fisher
TTITLE9=Don´t Be Scared- M. Farina G. Crivellente/F. Turatti
TTITLE10=Don´t Cry For Me Argentina - A.L. Webber T. Rice
TTITLE11=Don´t Speak - E. Stefani/G. Stefani
TTITLE12=Eternal Flame - S. Hoffs/B. Steinberg/T. Kelly
TTITLE13=Everytime You Go Away - P.Young
TTITLE14=Gaye - C.T. Ward
EXTD=
EXTT0=
EXTT1=
EXTT2=
EXTT3=
EXTT4=
EXTT5=
EXTT6=
EXTT7=
EXTT8=
EXTT9=
EXTT10=
EXTT11=
EXTT12=
EXTT13=
EXTT14=
PLAYORDER=
